# xmcd CD database file
#
# Track frame offsets:
#	150
#	16642
#	35227
#	54297
#	76745
#	96187
#	114447
#	134370
#	154002
#	172942
#	190450
#	215865
#
# Disc length: 3136 seconds
#
# Revision: 1
# Processed by: cddbd v1.5.2PL0 Copyright (c) Steve Scherf et al.
# Submitted via: CDex 1.51
#
DISCID=980c3e0c
DTITLE=COMMODORES - COMMODORES LIVE 
DYEAR=1993
DGENRE=Blues
TTITLE0=Let´s Get Busy (live)
TTITLE1=Brick House ´93 (live)
TTITLE2=Shut Up And Dance (live)
TTITLE3=No Tricks (live)
TTITLE4=Living On The Edge (live)
TTITLE5=Missing You (live)
TTITLE6=Everything Reminds Me Of You (live)
TTITLE7=Take My Hand (live)
TTITLE8=Your Smile (live)
TTITLE9=Don´t Rock It (live)
TTITLE10=Medley I (live)
TTITLE11=Medley II (live)
EXTD=YEAR: 1993
EXTT0=
EXTT1=
EXTT2=
EXTT3=
EXTT4=
EXTT5=
EXTT6=
EXTT7=
EXTT8=
EXTT9=
EXTT10=
EXTT11=
PLAYORDER=
